<svg id="图层_1" data-name="图层 1" xmlns="http://www.w3.org/2000/svg" viewBox="0 0 144 144"><defs><style>.cls-1{fill:#3ea753;}</style></defs><title>logo</title><path class="cls-1" d="M72,0a72,72,0,1,0,72,72A72,72,0,0,0,72,0ZM25.1,92.83c-4.07-1-8.89-3.33-10.64-12.16a32.71,32.71,0,0,1-.18-12.94c1.18-5.07,4-14.81,9.26-18.37,3.12-2.1,7.49-1.65,8.53,1.22.55,1.52-1.2,3.22-3.07,5.34a36.11,36.11,0,0,0-6.79,13.37,31.57,31.57,0,0,0-.27,9.38c.4,6,5.71,7.63,8,6.35,5.14-2.84,12.62-15.12,5.66-20.51C31.84,61.6,35.45,56,40,57.78,55.6,66.27,42.72,97,25.1,92.83ZM109,119.65c-3.39,1.18-10.49,2.49-14.46,1.15a38.39,38.39,0,0,1-13.4-7.69.77.77,0,0,0-1.12.14,14.58,14.58,0,0,1-6.34,5.25c-2.26,1-3.42,1.35-7.48,1.64-8.65.62-26.86-8.68-20.17-15.46,3.25-3.3,10.79-1.33,10.53,3.78,0,.89,6.35,5.55,11.78,4.12,2.73-.94,6.91-3.79,6.35-6.79-.38-2-4.78-7.12-6.51-8-2.84-1.38-5.86.23-7.77-1.7-2.36-2.39-1.15-8.06,4.26-7.52.54.05,1.09.16,1.76.27,5.07.85,8.12,3.24,11.75,8a.78.78,0,0,0,1.33-.13c2.27-5.1,4.57-9.55,4.44-13.21a.77.77,0,0,0-.77-.73c-3.42-.11-17.75.62-21.55.45-5.46-1.12-4.73-7.55.7-8,.77-.06,7,1.59,11.91,1.38.45,0,.47-1.72.53-3.21.07-1.77,0-3.73.06-5.5-6.61,1-15.25,3.11-20.75-1.21-4-3-4.05-8.22-4.08-12.49-.12-19-2.23-25.6,12.29-29.59a4.51,4.51,0,0,1,4.81.91c1.57,1.66,1.43,4.62-1.57,6.33-7.85,3.27-7.8,1.3-7.63,10.92a.79.79,0,0,0,.8.79c2.57-.14,5.79-.6,8.3-.07s3.18,5.4-1,7.73c-1.95,1.09-4.9.46-7.28.37a.77.77,0,0,0-.78.78c0,3.75.32,8.09,1.26,8.58,2,1,8.87,0,11.33-.47l3.57-.74c-.34-12.62-1-23.39-.55-37.15C73.68,18.26,80.8,18.3,85,22a5.1,5.1,0,0,1,1.42,1.69c.26,1-1.51,2.37-2.38,3.85-1.55,2.63-1.15,6-1.46,9.15v0c-.15,7.38-.13,14.76-.1,22.14a.77.77,0,0,0,.73.77c6.33.31,12.78,1,19,.11,2-.41,1.91-4.83,1.71-7.89a.74.74,0,0,0-.78-.7c-2,.06-7.47.17-9.67-.29-3-.62-6.8-8.45-1.29-8.56l10.35.42a.79.79,0,0,0,.82-.9c-.79-4.66-4.13-7.83-10.49-8.22-4.91-.3-2.6-8.19,2.19-8C110,26.28,111.71,36,111.5,49c0,7.46,1.12,15.14-6.83,18.35-3.25,1.28-9.61.47-12.62.34-3.73-.16-6.16-.42-8.87-.43-.42,0-.22.5-.23.91-.05,1.78-.11,3.58-.18,5.28a3.63,3.63,0,0,0,.15,1.5c.75,1.58,5.29.32,9.52.57C100.27,76,89,95.72,85.28,105a.8.8,0,0,0,.12.84c3.12,3.52,6.43,6.69,11,7.21,9.4,1.06,11.55-3.95,15.46-5.18C114,107.25,119.5,116,109,119.65Z" transform="translate(0 0)"/></svg>